<?xml version="1.0" encoding="UTF-8"?><svg xmlns="http://www.w3.org/2000/svg" xmlns:xlink="http://www.w3.org/1999/xlink" fill-opacity="1" color-rendering="auto" color-interpolation="auto" stroke="black" text-rendering="auto" stroke-linecap="square" width="1733" stroke-miterlimit="10" stroke-opacity="1" shape-rendering="auto" fill="black" stroke-dasharray="none" font-weight="normal" stroke-width="1" height="260" font-family="'Dialog'" font-style="normal" stroke-linejoin="miter" font-size="12" stroke-dashoffset="0" image-rendering="auto">
  <!--Generated by ySVG-->
  <defs id="genericDefs"/>
  <g>
    <defs id="defs1">
      <clipPath clipPathUnits="userSpaceOnUse" id="clipPath1">
        <path d="M0 0 L1733 0 L1733 260 L0 260 L0 0 Z"/>
      </clipPath>
      <clipPath clipPathUnits="userSpaceOnUse" id="clipPath2">
        <path d="M-15 -15 L1718 -15 L1718 245 L-15 245 L-15 -15 Z"/>
      </clipPath>
    </defs>
    <g fill="white" transform="translate(15,15)" stroke="white">
      <rect x="-15" width="1733" height="260" y="-15" clip-path="url(#clipPath2)" stroke="none"/>
    </g>
    <g fill="rgb(255,204,153)" transform="matrix(1,0,0,1,15,15)" stroke="rgb(255,204,153)">
      <rect x="0" width="443.2402" height="30" y="125" clip-path="url(#clipPath2)" stroke="none"/>
    </g>
    <g stroke-miterlimit="1.45" font-family="'DejaVu Sans'" transform="matrix(1,0,0,1,15,15)" stroke-linecap="butt">
      <text x="7" xml:space="preserve" y="144.1562" clip-path="url(#clipPath2)" stroke="none">com.anrisoftware.propertiesutils:propertiesutils-swingproperties:jar:1.2</text>
      <rect fill="none" x="0" width="443.2402" height="30" y="125" clip-path="url(#clipPath2)"/>
    </g>
    <g fill="rgb(255,204,153)" transform="matrix(1,0,0,1,15,15)" stroke="rgb(255,204,153)">
      <rect x="488.2402" width="454.0566" height="30" y="0" clip-path="url(#clipPath2)" stroke="none"/>
    </g>
    <g stroke-miterlimit="1.45" font-family="'DejaVu Sans'" transform="matrix(1,0,0,1,15,15)" stroke-linecap="butt">
      <text x="495.2402" xml:space="preserve" y="19.1562" clip-path="url(#clipPath2)" stroke="none">com.anrisoftware.propertiesutils:propertiesutils-contextproperties:jar:1.6</text>
      <rect fill="none" x="488.2402" width="454.0566" height="30" y="0" clip-path="url(#clipPath2)"/>
    </g>
    <g fill="rgb(204,204,255)" transform="matrix(1,0,0,1,15,15)" stroke="rgb(204,204,255)">
      <rect x="488.2402" width="287.1758" height="30" y="200" clip-path="url(#clipPath2)" stroke="none"/>
    </g>
    <g stroke-miterlimit="1.45" font-family="'DejaVu Sans'" transform="matrix(1,0,0,1,15,15)" stroke-linecap="butt">
      <text x="495.2402" xml:space="preserve" y="219.1562" clip-path="url(#clipPath2)" stroke="none">org.apache.commons:commons-lang3:jar:3.1</text>
      <rect fill="none" x="488.2402" width="287.1758" height="30" y="200" clip-path="url(#clipPath2)"/>
    </g>
    <g fill="rgb(255,204,153)" transform="matrix(1,0,0,1,15,15)" stroke="rgb(255,204,153)">
      <rect x="488.2402" width="325.3789" height="30" y="100" clip-path="url(#clipPath2)" stroke="none"/>
    </g>
    <g stroke-miterlimit="1.45" font-family="'DejaVu Sans'" transform="matrix(1,0,0,1,15,15)" stroke-linecap="butt">
      <text x="495.2402" xml:space="preserve" y="119.1562" clip-path="url(#clipPath2)" stroke="none">com.anrisoftware.globalpom:globalpom-utils:jar:1.4</text>
      <rect fill="none" x="488.2402" width="325.3789" height="30" y="100" clip-path="url(#clipPath2)"/>
    </g>
    <g fill="rgb(255,204,153)" transform="matrix(1,0,0,1,15,15)" stroke="rgb(255,204,153)">
      <rect x="858.6191" width="326.0762" height="30" y="50" clip-path="url(#clipPath2)" stroke="none"/>
    </g>
    <g stroke-miterlimit="1.45" font-family="'DejaVu Sans'" transform="matrix(1,0,0,1,15,15)" stroke-linecap="butt">
      <text x="865.6191" xml:space="preserve" y="69.1562" clip-path="url(#clipPath2)" stroke="none">com.anrisoftware.globalpom:globalpom-log:jar:1.10</text>
      <rect fill="none" x="858.6191" width="326.0762" height="30" y="50" clip-path="url(#clipPath2)"/>
    </g>
    <g fill="rgb(204,204,255)" transform="matrix(1,0,0,1,15,15)" stroke="rgb(204,204,255)">
      <rect x="858.6191" width="187.4199" height="30" y="150" clip-path="url(#clipPath2)" stroke="none"/>
    </g>
    <g stroke-miterlimit="1.45" font-family="'DejaVu Sans'" transform="matrix(1,0,0,1,15,15)" stroke-linecap="butt">
      <text x="865.6191" xml:space="preserve" y="169.1562" clip-path="url(#clipPath2)" stroke="none">javax.inject:javax.inject:jar:1</text>
      <rect fill="none" x="858.6191" width="187.4199" height="30" y="150" clip-path="url(#clipPath2)"/>
    </g>
    <g fill="rgb(204,204,255)" transform="matrix(1,0,0,1,15,15)" stroke="rgb(204,204,255)">
      <rect x="858.6191" width="355.4375" height="30" y="100" clip-path="url(#clipPath2)" stroke="none"/>
    </g>
    <g stroke-miterlimit="1.45" font-family="'DejaVu Sans'" transform="matrix(1,0,0,1,15,15)" stroke-linecap="butt">
      <text x="865.6191" xml:space="preserve" y="119.1562" clip-path="url(#clipPath2)" stroke="none">com.google.inject.extensions:guice-assistedinject:jar:3.0</text>
      <rect fill="none" x="858.6191" width="355.4375" height="30" y="100" clip-path="url(#clipPath2)"/>
    </g>
    <g fill="rgb(204,204,255)" transform="matrix(1,0,0,1,15,15)" stroke="rgb(204,204,255)">
      <rect x="1259.0566" width="200.2227" height="30" y="100" clip-path="url(#clipPath2)" stroke="none"/>
    </g>
    <g stroke-miterlimit="1.45" font-family="'DejaVu Sans'" transform="matrix(1,0,0,1,15,15)" stroke-linecap="butt">
      <text x="1266.0566" xml:space="preserve" y="119.1562" clip-path="url(#clipPath2)" stroke="none">com.google.inject:guice:jar:3.0</text>
      <rect fill="none" x="1259.0566" width="200.2227" height="30" y="100" clip-path="url(#clipPath2)"/>
    </g>
    <g fill="rgb(204,204,255)" transform="matrix(1,0,0,1,15,15)" stroke="rgb(204,204,255)">
      <rect x="1504.2793" width="198.0488" height="30" y="100" clip-path="url(#clipPath2)" stroke="none"/>
    </g>
    <g stroke-miterlimit="1.45" font-family="'DejaVu Sans'" transform="matrix(1,0,0,1,15,15)" stroke-linecap="butt">
      <text x="1511.2793" xml:space="preserve" y="119.1562" clip-path="url(#clipPath2)" stroke="none">aopalliance:aopalliance:jar:1.0</text>
      <rect fill="none" x="1504.2793" width="198.0488" height="30" y="100" clip-path="url(#clipPath2)"/>
    </g>
    <g fill="rgb(204,204,255)" transform="matrix(1,0,0,1,15,15)" stroke="rgb(204,204,255)">
      <rect x="488.2402" width="168.1836" height="30" y="150" clip-path="url(#clipPath2)" stroke="none"/>
    </g>
    <g stroke-miterlimit="1.45" font-family="'DejaVu Sans'" transform="matrix(1,0,0,1,15,15)" stroke-linecap="butt">
      <text x="495.2402" xml:space="preserve" y="169.1562" clip-path="url(#clipPath2)" stroke="none">org.slf4j:slf4j-api:jar:1.7.5</text>
      <rect fill="none" x="488.2402" width="168.1836" height="30" y="150" clip-path="url(#clipPath2)"/>
      <path fill="none" d="M280.8579 125 L656.0308 30" clip-path="url(#clipPath2)"/>
      <path fill="none" d="M303.6617 155 L549.7865 200" clip-path="url(#clipPath2)"/>
      <path fill="none" d="M443.2402 127.0944 L488.2402 124.4739" clip-path="url(#clipPath2)"/>
      <path fill="none" d="M762.1479 100 L910.439 80" clip-path="url(#clipPath2)"/>
      <path fill="none" d="M741.3495 130 L861.9093 150" clip-path="url(#clipPath2)"/>
      <path fill="none" d="M813.6191 115 L858.6191 115" clip-path="url(#clipPath2)"/>
      <path fill="none" d="M1214.0566 115 L1259.0566 115" clip-path="url(#clipPath2)"/>
      <path fill="none" d="M1459.2793 115 L1504.2793 115" clip-path="url(#clipPath2)"/>
      <path fill="none" d="M432.0473 155 L488.2402 159.0056" clip-path="url(#clipPath2)"/>
    </g>
  </g>
</svg>
