<?xml version="1.0" encoding="UTF-8"?><svg xmlns="http://www.w3.org/2000/svg" xmlns:xlink="http://www.w3.org/1999/xlink" fill-opacity="1" color-rendering="auto" color-interpolation="auto" stroke="black" text-rendering="auto" stroke-linecap="square" width="868" stroke-miterlimit="10" stroke-opacity="1" shape-rendering="auto" fill="black" stroke-dasharray="none" font-weight="normal" stroke-width="1" height="160" font-family="'Dialog'" font-style="normal" stroke-linejoin="miter" font-size="12" stroke-dashoffset="0" image-rendering="auto">
  <!--Generated by ySVG-->
  <defs id="genericDefs"/>
  <g>
    <defs id="defs1">
      <clipPath clipPathUnits="userSpaceOnUse" id="clipPath1">
        <path d="M0 0 L868 0 L868 160 L0 160 L0 0 Z"/>
      </clipPath>
      <clipPath clipPathUnits="userSpaceOnUse" id="clipPath2">
        <path d="M-15 -15 L853 -15 L853 145 L-15 145 L-15 -15 Z"/>
      </clipPath>
    </defs>
    <g fill="white" transform="translate(15,15)" stroke="white">
      <rect x="-15" width="868" height="160" y="-15" clip-path="url(#clipPath2)" stroke="none"/>
    </g>
    <g fill="rgb(255,204,153)" transform="matrix(1,0,0,1,15,15)" stroke="rgb(255,204,153)">
      <rect x="0" width="454.0566" height="30" y="50" clip-path="url(#clipPath2)" stroke="none"/>
    </g>
    <g stroke-miterlimit="1.45" font-family="'DejaVu Sans'" transform="matrix(1,0,0,1,15,15)" stroke-linecap="butt">
      <text x="7" xml:space="preserve" y="69.1562" clip-path="url(#clipPath2)" stroke="none">com.anrisoftware.propertiesutils:propertiesutils-contextproperties:jar:1.6</text>
      <rect fill="none" x="0" width="454.0566" height="30" y="50" clip-path="url(#clipPath2)"/>
    </g>
    <g fill="rgb(204,204,255)" transform="matrix(1,0,0,1,15,15)" stroke="rgb(204,204,255)">
      <rect x="499.0566" width="338.5156" height="30" y="100" clip-path="url(#clipPath2)" stroke="none"/>
    </g>
    <g stroke-miterlimit="1.45" font-family="'DejaVu Sans'" transform="matrix(1,0,0,1,15,15)" stroke-linecap="butt">
      <text x="506.0566" xml:space="preserve" y="119.1562" clip-path="url(#clipPath2)" stroke="none">org.apache.commons:commons-lang3:jar:3.1:compile</text>
      <rect fill="none" x="499.0566" width="338.5156" height="30" y="100" clip-path="url(#clipPath2)"/>
    </g>
    <g fill="rgb(204,204,255)" transform="matrix(1,0,0,1,15,15)" stroke="rgb(204,204,255)">
      <rect x="499.0566" width="226.3496" height="30" y="50" clip-path="url(#clipPath2)" stroke="none"/>
    </g>
    <g stroke-miterlimit="1.45" font-family="'DejaVu Sans'" transform="matrix(1,0,0,1,15,15)" stroke-linecap="butt">
      <text x="506.0566" xml:space="preserve" y="69.1562" clip-path="url(#clipPath2)" stroke="none">joda-time:joda-time:jar:2.1:compile</text>
      <rect fill="none" x="499.0566" width="226.3496" height="30" y="50" clip-path="url(#clipPath2)"/>
    </g>
    <g fill="rgb(204,204,255)" transform="matrix(1,0,0,1,15,15)" stroke="rgb(204,204,255)">
      <rect x="499.0566" width="219.5234" height="30" y="0" clip-path="url(#clipPath2)" stroke="none"/>
    </g>
    <g stroke-miterlimit="1.45" font-family="'DejaVu Sans'" transform="matrix(1,0,0,1,15,15)" stroke-linecap="butt">
      <text x="506.0566" xml:space="preserve" y="19.1562" clip-path="url(#clipPath2)" stroke="none">org.slf4j:slf4j-api:jar:1.7.5:compile</text>
      <rect fill="none" x="499.0566" width="219.5234" height="30" y="0" clip-path="url(#clipPath2)"/>
      <path fill="none" d="M227.0283 80 L227.0283 105.1005 L236.9278 115 L499.0246 115" clip-path="url(#clipPath2)"/>
      <path fill="none" d="M454.0566 65 L499.0127 65" clip-path="url(#clipPath2)"/>
      <path fill="none" d="M227.0283 49.951 L227.0283 24.8995 L236.9278 15 L499.0246 15" clip-path="url(#clipPath2)"/>
    </g>
  </g>
</svg>
